<mxfile host="app.diagrams.net" agent="Mozilla/5.0 (X11; Linux x86_64; rv:128.0) Gecko/20100101 Firefox/128.0" version="28.2.1" pages="5">
  <diagram name="Overview" id="ZHCbhBoaQqh2ZG6ffgn-">
    <mxGraphModel dx="2276" dy="946" grid="1" gridSize="10" guides="1" tooltips="1" connect="1" arrows="1" fold="1" page="1" pageScale="1" pageWidth="850" pageHeight="1100" math="0" shadow="0">
      <root>
        <mxCell id="0" />
        <mxCell id="1" parent="0" />
        <mxCell id="ONiG-uNVXGWmHt000nKn-43" style="edgeStyle=orthogonalEdgeStyle;rounded=0;orthogonalLoop=1;jettySize=auto;html=1;" parent="1" source="ONiG-uNVXGWmHt000nKn-3" edge="1">
          <mxGeometry relative="1" as="geometry">
            <mxPoint x="650" y="450" as="targetPoint" />
          </mxGeometry>
        </mxCell>
        <mxCell id="ONiG-uNVXGWmHt000nKn-3" value="" style="rounded=0;whiteSpace=wrap;html=1;" parent="1" vertex="1">
          <mxGeometry x="48.5" y="190" width="405" height="590" as="geometry" />
        </mxCell>
        <mxCell id="ONiG-uNVXGWmHt000nKn-44" value="outerVerticalBox" style="text;html=1;align=center;verticalAlign=middle;resizable=0;points=[];autosize=1;strokeColor=none;fillColor=none;" parent="1" vertex="1">
          <mxGeometry x="640" y="435" width="110" height="30" as="geometry" />
        </mxCell>
        <mxCell id="EX1TKI-7gi0cvQq1vLOM-5" style="edgeStyle=orthogonalEdgeStyle;rounded=0;orthogonalLoop=1;jettySize=auto;html=1;" edge="1" parent="1" source="ONiG-uNVXGWmHt000nKn-47">
          <mxGeometry relative="1" as="geometry">
            <mxPoint x="270" y="80" as="targetPoint" />
          </mxGeometry>
        </mxCell>
        <mxCell id="ONiG-uNVXGWmHt000nKn-47" value="1234567890" style="rounded=0;whiteSpace=wrap;html=1;" parent="1" vertex="1">
          <mxGeometry x="85" y="230" width="340" height="160" as="geometry" />
        </mxCell>
        <mxCell id="ONiG-uNVXGWmHt000nKn-49" value="displayLabel" style="text;html=1;align=center;verticalAlign=middle;resizable=0;points=[];autosize=1;strokeColor=none;fillColor=none;" parent="1" vertex="1">
          <mxGeometry x="190" y="40" width="90" height="30" as="geometry" />
        </mxCell>
        <mxCell id="ONiG-uNVXGWmHt000nKn-63" value="numberGridBox" style="text;html=1;align=center;verticalAlign=middle;resizable=0;points=[];autosize=1;strokeColor=none;fillColor=none;" parent="1" vertex="1">
          <mxGeometry x="-160" y="577.5" width="110" height="30" as="geometry" />
        </mxCell>
        <mxCell id="ONiG-uNVXGWmHt000nKn-35" value="0" style="html=1;shadow=0;dashed=0;shape=mxgraph.bootstrap.rrect;rSize=5;strokeColor=none;strokeWidth=1;fillColor=#343A40;fontColor=#ffffff;whiteSpace=wrap;align=center;verticalAlign=middle;spacingLeft=0;fontStyle=0;fontSize=16;spacing=5;" parent="1" vertex="1">
          <mxGeometry x="180" y="710" width="60" height="40" as="geometry" />
        </mxCell>
        <mxCell id="EX1TKI-7gi0cvQq1vLOM-1" value="" style="group" vertex="1" connectable="0" parent="1">
          <mxGeometry x="100" y="502.5" width="220" height="180" as="geometry" />
        </mxCell>
        <mxCell id="ONiG-uNVXGWmHt000nKn-25" value="7" style="html=1;shadow=0;dashed=0;shape=mxgraph.bootstrap.rrect;rSize=5;strokeColor=none;strokeWidth=1;fillColor=#343A40;fontColor=#ffffff;whiteSpace=wrap;align=center;verticalAlign=middle;spacingLeft=0;fontStyle=0;fontSize=16;spacing=5;" parent="EX1TKI-7gi0cvQq1vLOM-1" vertex="1">
          <mxGeometry width="60" height="40" as="geometry" />
        </mxCell>
        <mxCell id="ONiG-uNVXGWmHt000nKn-26" value="8" style="html=1;shadow=0;dashed=0;shape=mxgraph.bootstrap.rrect;rSize=5;strokeColor=none;strokeWidth=1;fillColor=#343A40;fontColor=#ffffff;whiteSpace=wrap;align=center;verticalAlign=middle;spacingLeft=0;fontStyle=0;fontSize=16;spacing=5;" parent="EX1TKI-7gi0cvQq1vLOM-1" vertex="1">
          <mxGeometry x="80" width="60" height="40" as="geometry" />
        </mxCell>
        <mxCell id="ONiG-uNVXGWmHt000nKn-27" value="9" style="html=1;shadow=0;dashed=0;shape=mxgraph.bootstrap.rrect;rSize=5;strokeColor=none;strokeWidth=1;fillColor=#343A40;fontColor=#ffffff;whiteSpace=wrap;align=center;verticalAlign=middle;spacingLeft=0;fontStyle=0;fontSize=16;spacing=5;" parent="EX1TKI-7gi0cvQq1vLOM-1" vertex="1">
          <mxGeometry x="160" width="60" height="40" as="geometry" />
        </mxCell>
        <mxCell id="ONiG-uNVXGWmHt000nKn-28" value="4" style="html=1;shadow=0;dashed=0;shape=mxgraph.bootstrap.rrect;rSize=5;strokeColor=none;strokeWidth=1;fillColor=#343A40;fontColor=#ffffff;whiteSpace=wrap;align=center;verticalAlign=middle;spacingLeft=0;fontStyle=0;fontSize=16;spacing=5;" parent="EX1TKI-7gi0cvQq1vLOM-1" vertex="1">
          <mxGeometry y="70" width="60" height="40" as="geometry" />
        </mxCell>
        <mxCell id="ONiG-uNVXGWmHt000nKn-29" value="5" style="html=1;shadow=0;dashed=0;shape=mxgraph.bootstrap.rrect;rSize=5;strokeColor=none;strokeWidth=1;fillColor=#343A40;fontColor=#ffffff;whiteSpace=wrap;align=center;verticalAlign=middle;spacingLeft=0;fontStyle=0;fontSize=16;spacing=5;" parent="EX1TKI-7gi0cvQq1vLOM-1" vertex="1">
          <mxGeometry x="80" y="70" width="60" height="40" as="geometry" />
        </mxCell>
        <mxCell id="ONiG-uNVXGWmHt000nKn-30" value="6" style="html=1;shadow=0;dashed=0;shape=mxgraph.bootstrap.rrect;rSize=5;strokeColor=none;strokeWidth=1;fillColor=#343A40;fontColor=#ffffff;whiteSpace=wrap;align=center;verticalAlign=middle;spacingLeft=0;fontStyle=0;fontSize=16;spacing=5;" parent="EX1TKI-7gi0cvQq1vLOM-1" vertex="1">
          <mxGeometry x="160" y="70" width="60" height="40" as="geometry" />
        </mxCell>
        <mxCell id="ONiG-uNVXGWmHt000nKn-31" value="1" style="html=1;shadow=0;dashed=0;shape=mxgraph.bootstrap.rrect;rSize=5;strokeColor=none;strokeWidth=1;fillColor=#343A40;fontColor=#ffffff;whiteSpace=wrap;align=center;verticalAlign=middle;spacingLeft=0;fontStyle=0;fontSize=16;spacing=5;" parent="EX1TKI-7gi0cvQq1vLOM-1" vertex="1">
          <mxGeometry y="140" width="60" height="40" as="geometry" />
        </mxCell>
        <mxCell id="ONiG-uNVXGWmHt000nKn-32" value="2" style="html=1;shadow=0;dashed=0;shape=mxgraph.bootstrap.rrect;rSize=5;strokeColor=none;strokeWidth=1;fillColor=#343A40;fontColor=#ffffff;whiteSpace=wrap;align=center;verticalAlign=middle;spacingLeft=0;fontStyle=0;fontSize=16;spacing=5;" parent="EX1TKI-7gi0cvQq1vLOM-1" vertex="1">
          <mxGeometry x="80" y="140" width="60" height="40" as="geometry" />
        </mxCell>
        <mxCell id="ONiG-uNVXGWmHt000nKn-33" value="3" style="html=1;shadow=0;dashed=0;shape=mxgraph.bootstrap.rrect;rSize=5;strokeColor=none;strokeWidth=1;fillColor=#343A40;fontColor=#ffffff;whiteSpace=wrap;align=center;verticalAlign=middle;spacingLeft=0;fontStyle=0;fontSize=16;spacing=5;" parent="EX1TKI-7gi0cvQq1vLOM-1" vertex="1">
          <mxGeometry x="160" y="140" width="60" height="40" as="geometry" />
        </mxCell>
        <mxCell id="EX1TKI-7gi0cvQq1vLOM-2" value="" style="group" vertex="1" connectable="0" parent="1">
          <mxGeometry x="340" y="435" width="60" height="315" as="geometry" />
        </mxCell>
        <mxCell id="ONiG-uNVXGWmHt000nKn-38" value="/" style="html=1;shadow=0;dashed=0;shape=mxgraph.bootstrap.rrect;rSize=5;strokeColor=none;strokeWidth=1;fillColor=#343A40;fontColor=#ffffff;whiteSpace=wrap;align=center;verticalAlign=middle;spacingLeft=0;fontStyle=0;fontSize=16;spacing=5;" parent="EX1TKI-7gi0cvQq1vLOM-2" vertex="1">
          <mxGeometry width="60" height="40" as="geometry" />
        </mxCell>
        <mxCell id="ONiG-uNVXGWmHt000nKn-39" value="X" style="html=1;shadow=0;dashed=0;shape=mxgraph.bootstrap.rrect;rSize=5;strokeColor=none;strokeWidth=1;fillColor=#343A40;fontColor=#ffffff;whiteSpace=wrap;align=center;verticalAlign=middle;spacingLeft=0;fontStyle=0;fontSize=16;spacing=5;" parent="EX1TKI-7gi0cvQq1vLOM-2" vertex="1">
          <mxGeometry y="65" width="60" height="40" as="geometry" />
        </mxCell>
        <mxCell id="ONiG-uNVXGWmHt000nKn-40" value="-" style="html=1;shadow=0;dashed=0;shape=mxgraph.bootstrap.rrect;rSize=5;strokeColor=none;strokeWidth=1;fillColor=#343A40;fontColor=#ffffff;whiteSpace=wrap;align=center;verticalAlign=middle;spacingLeft=0;fontStyle=0;fontSize=16;spacing=5;" parent="EX1TKI-7gi0cvQq1vLOM-2" vertex="1">
          <mxGeometry y="135" width="60" height="40" as="geometry" />
        </mxCell>
        <mxCell id="ONiG-uNVXGWmHt000nKn-41" value="+" style="html=1;shadow=0;dashed=0;shape=mxgraph.bootstrap.rrect;rSize=5;strokeColor=none;strokeWidth=1;fillColor=#343A40;fontColor=#ffffff;whiteSpace=wrap;align=center;verticalAlign=middle;spacingLeft=0;fontStyle=0;fontSize=16;spacing=5;" parent="EX1TKI-7gi0cvQq1vLOM-2" vertex="1">
          <mxGeometry y="205" width="60" height="40" as="geometry" />
        </mxCell>
        <mxCell id="ONiG-uNVXGWmHt000nKn-42" value="=" style="html=1;shadow=0;dashed=0;shape=mxgraph.bootstrap.rrect;rSize=5;strokeColor=none;strokeWidth=1;fillColor=#343A40;fontColor=#ffffff;whiteSpace=wrap;align=center;verticalAlign=middle;spacingLeft=0;fontStyle=0;fontSize=16;spacing=5;" parent="EX1TKI-7gi0cvQq1vLOM-2" vertex="1">
          <mxGeometry y="275" width="60" height="40" as="geometry" />
        </mxCell>
        <mxCell id="EX1TKI-7gi0cvQq1vLOM-4" value="" style="rounded=0;whiteSpace=wrap;html=1;fillColor=none;" vertex="1" parent="1">
          <mxGeometry x="80" y="422.5" width="350" height="340" as="geometry" />
        </mxCell>
        <mxCell id="EX1TKI-7gi0cvQq1vLOM-3" value="" style="group" vertex="1" connectable="0" parent="1">
          <mxGeometry x="100" y="435" width="220" height="315" as="geometry" />
        </mxCell>
        <mxCell id="ONiG-uNVXGWmHt000nKn-34" value="+/-" style="html=1;shadow=0;dashed=0;shape=mxgraph.bootstrap.rrect;rSize=5;strokeColor=none;strokeWidth=1;fillColor=#343A40;fontColor=#ffffff;whiteSpace=wrap;align=center;verticalAlign=middle;spacingLeft=0;fontStyle=0;fontSize=16;spacing=5;" parent="EX1TKI-7gi0cvQq1vLOM-3" vertex="1">
          <mxGeometry y="275" width="60" height="40" as="geometry" />
        </mxCell>
        <mxCell id="ONiG-uNVXGWmHt000nKn-36" value="." style="html=1;shadow=0;dashed=0;shape=mxgraph.bootstrap.rrect;rSize=5;strokeColor=none;strokeWidth=1;fillColor=#343A40;fontColor=#ffffff;whiteSpace=wrap;align=center;verticalAlign=middle;spacingLeft=0;fontStyle=0;fontSize=16;spacing=5;" parent="EX1TKI-7gi0cvQq1vLOM-3" vertex="1">
          <mxGeometry x="160" y="275" width="60" height="40" as="geometry" />
        </mxCell>
        <mxCell id="ONiG-uNVXGWmHt000nKn-22" value="AC" style="html=1;shadow=0;dashed=0;shape=mxgraph.bootstrap.rrect;rSize=5;strokeColor=none;strokeWidth=1;fillColor=#343A40;fontColor=#ffffff;whiteSpace=wrap;align=center;verticalAlign=middle;spacingLeft=0;fontStyle=0;fontSize=16;spacing=5;" parent="EX1TKI-7gi0cvQq1vLOM-3" vertex="1">
          <mxGeometry width="60" height="40" as="geometry" />
        </mxCell>
        <mxCell id="ONiG-uNVXGWmHt000nKn-23" value="()" style="html=1;shadow=0;dashed=0;shape=mxgraph.bootstrap.rrect;rSize=5;strokeColor=none;strokeWidth=1;fillColor=#343A40;fontColor=#ffffff;whiteSpace=wrap;align=center;verticalAlign=middle;spacingLeft=0;fontStyle=0;fontSize=16;spacing=5;" parent="EX1TKI-7gi0cvQq1vLOM-3" vertex="1">
          <mxGeometry x="80" width="60" height="40" as="geometry" />
        </mxCell>
        <mxCell id="ONiG-uNVXGWmHt000nKn-24" value="%" style="html=1;shadow=0;dashed=0;shape=mxgraph.bootstrap.rrect;rSize=5;strokeColor=none;strokeWidth=1;fillColor=#343A40;fontColor=#ffffff;whiteSpace=wrap;align=center;verticalAlign=middle;spacingLeft=0;fontStyle=0;fontSize=16;spacing=5;" parent="EX1TKI-7gi0cvQq1vLOM-3" vertex="1">
          <mxGeometry x="160" width="60" height="40" as="geometry" />
        </mxCell>
        <mxCell id="EX1TKI-7gi0cvQq1vLOM-6" style="edgeStyle=orthogonalEdgeStyle;rounded=0;orthogonalLoop=1;jettySize=auto;html=1;exitX=0;exitY=0.5;exitDx=0;exitDy=0;entryX=0.982;entryY=0.617;entryDx=0;entryDy=0;entryPerimeter=0;" edge="1" parent="1" source="EX1TKI-7gi0cvQq1vLOM-4" target="ONiG-uNVXGWmHt000nKn-63">
          <mxGeometry relative="1" as="geometry" />
        </mxCell>
      </root>
    </mxGraphModel>
  </diagram>
  <diagram id="0YMw-wIQjGtIrZ2LWLG2" name="Buttons">
    <mxGraphModel dx="1426" dy="919" grid="1" gridSize="10" guides="1" tooltips="1" connect="1" arrows="1" fold="1" page="1" pageScale="1" pageWidth="850" pageHeight="1100" math="0" shadow="0">
      <root>
        <mxCell id="0" />
        <mxCell id="1" parent="0" />
        <mxCell id="gdYHp2zwNrjx5sL7U3kC-2" style="edgeStyle=orthogonalEdgeStyle;rounded=0;orthogonalLoop=1;jettySize=auto;html=1;entryX=0.5;entryY=0;entryDx=0;entryDy=0;" parent="1" source="oD-rKTJi_5rqf1T50AHh-1" target="e8gYesftpkrSxCPR6mt--5" edge="1">
          <mxGeometry relative="1" as="geometry" />
        </mxCell>
        <mxCell id="gdYHp2zwNrjx5sL7U3kC-3" style="edgeStyle=orthogonalEdgeStyle;rounded=0;orthogonalLoop=1;jettySize=auto;html=1;exitX=1;exitY=0.5;exitDx=0;exitDy=0;entryX=0.5;entryY=0;entryDx=0;entryDy=0;" parent="1" source="oD-rKTJi_5rqf1T50AHh-1" target="5Xg6baDlLzO5euuNQ3bb-1" edge="1">
          <mxGeometry relative="1" as="geometry" />
        </mxCell>
        <mxCell id="oD-rKTJi_5rqf1T50AHh-1" value="QskPushButtons" style="swimlane;fontStyle=1;align=center;verticalAlign=top;childLayout=stackLayout;horizontal=1;startSize=26;horizontalStack=0;resizeParent=1;resizeParentMax=0;resizeLast=0;collapsible=1;marginBottom=0;whiteSpace=wrap;html=1;" parent="1" vertex="1">
          <mxGeometry x="320" y="90" width="160" height="86" as="geometry" />
        </mxCell>
        <mxCell id="oD-rKTJi_5rqf1T50AHh-2" value="+ field: type" style="text;strokeColor=none;fillColor=none;align=left;verticalAlign=top;spacingLeft=4;spacingRight=4;overflow=hidden;rotatable=0;points=[[0,0.5],[1,0.5]];portConstraint=eastwest;whiteSpace=wrap;html=1;" parent="oD-rKTJi_5rqf1T50AHh-1" vertex="1">
          <mxGeometry y="26" width="160" height="26" as="geometry" />
        </mxCell>
        <mxCell id="oD-rKTJi_5rqf1T50AHh-3" value="" style="line;strokeWidth=1;fillColor=none;align=left;verticalAlign=middle;spacingTop=-1;spacingLeft=3;spacingRight=3;rotatable=0;labelPosition=right;points=[];portConstraint=eastwest;strokeColor=inherit;" parent="oD-rKTJi_5rqf1T50AHh-1" vertex="1">
          <mxGeometry y="52" width="160" height="8" as="geometry" />
        </mxCell>
        <mxCell id="oD-rKTJi_5rqf1T50AHh-4" value="+ method(type): type" style="text;strokeColor=none;fillColor=none;align=left;verticalAlign=top;spacingLeft=4;spacingRight=4;overflow=hidden;rotatable=0;points=[[0,0.5],[1,0.5]];portConstraint=eastwest;whiteSpace=wrap;html=1;" parent="oD-rKTJi_5rqf1T50AHh-1" vertex="1">
          <mxGeometry y="60" width="160" height="26" as="geometry" />
        </mxCell>
        <mxCell id="e8gYesftpkrSxCPR6mt--1" value="&lt;div&gt;NumberButtons&lt;/div&gt;" style="swimlane;fontStyle=1;align=center;verticalAlign=top;childLayout=stackLayout;horizontal=1;startSize=26;horizontalStack=0;resizeParent=1;resizeParentMax=0;resizeLast=0;collapsible=1;marginBottom=0;whiteSpace=wrap;html=1;" parent="1" vertex="1">
          <mxGeometry x="100" y="380" width="160" height="86" as="geometry" />
        </mxCell>
        <mxCell id="e8gYesftpkrSxCPR6mt--2" value="+ field: type" style="text;strokeColor=none;fillColor=none;align=left;verticalAlign=top;spacingLeft=4;spacingRight=4;overflow=hidden;rotatable=0;points=[[0,0.5],[1,0.5]];portConstraint=eastwest;whiteSpace=wrap;html=1;" parent="e8gYesftpkrSxCPR6mt--1" vertex="1">
          <mxGeometry y="26" width="160" height="26" as="geometry" />
        </mxCell>
        <mxCell id="e8gYesftpkrSxCPR6mt--3" value="" style="line;strokeWidth=1;fillColor=none;align=left;verticalAlign=middle;spacingTop=-1;spacingLeft=3;spacingRight=3;rotatable=0;labelPosition=right;points=[];portConstraint=eastwest;strokeColor=inherit;" parent="e8gYesftpkrSxCPR6mt--1" vertex="1">
          <mxGeometry y="52" width="160" height="8" as="geometry" />
        </mxCell>
        <mxCell id="e8gYesftpkrSxCPR6mt--4" value="+ NumberButtons()" style="text;strokeColor=none;fillColor=none;align=left;verticalAlign=top;spacingLeft=4;spacingRight=4;overflow=hidden;rotatable=0;points=[[0,0.5],[1,0.5]];portConstraint=eastwest;whiteSpace=wrap;html=1;" parent="e8gYesftpkrSxCPR6mt--1" vertex="1">
          <mxGeometry y="60" width="160" height="26" as="geometry" />
        </mxCell>
        <mxCell id="e8gYesftpkrSxCPR6mt--5" value="OperationButtons" style="swimlane;fontStyle=1;align=center;verticalAlign=top;childLayout=stackLayout;horizontal=1;startSize=26;horizontalStack=0;resizeParent=1;resizeParentMax=0;resizeLast=0;collapsible=1;marginBottom=0;whiteSpace=wrap;html=1;" parent="1" vertex="1">
          <mxGeometry x="320" y="380" width="160" height="86" as="geometry" />
        </mxCell>
        <mxCell id="e8gYesftpkrSxCPR6mt--6" value="+ field: type" style="text;strokeColor=none;fillColor=none;align=left;verticalAlign=top;spacingLeft=4;spacingRight=4;overflow=hidden;rotatable=0;points=[[0,0.5],[1,0.5]];portConstraint=eastwest;whiteSpace=wrap;html=1;" parent="e8gYesftpkrSxCPR6mt--5" vertex="1">
          <mxGeometry y="26" width="160" height="26" as="geometry" />
        </mxCell>
        <mxCell id="e8gYesftpkrSxCPR6mt--7" value="" style="line;strokeWidth=1;fillColor=none;align=left;verticalAlign=middle;spacingTop=-1;spacingLeft=3;spacingRight=3;rotatable=0;labelPosition=right;points=[];portConstraint=eastwest;strokeColor=inherit;" parent="e8gYesftpkrSxCPR6mt--5" vertex="1">
          <mxGeometry y="52" width="160" height="8" as="geometry" />
        </mxCell>
        <mxCell id="e8gYesftpkrSxCPR6mt--8" value="+ OperationButtons()" style="text;strokeColor=none;fillColor=none;align=left;verticalAlign=top;spacingLeft=4;spacingRight=4;overflow=hidden;rotatable=0;points=[[0,0.5],[1,0.5]];portConstraint=eastwest;whiteSpace=wrap;html=1;" parent="e8gYesftpkrSxCPR6mt--5" vertex="1">
          <mxGeometry y="60" width="160" height="26" as="geometry" />
        </mxCell>
        <mxCell id="5Xg6baDlLzO5euuNQ3bb-1" value="&lt;div&gt;OtherButtons&lt;/div&gt;&lt;div&gt;&lt;br&gt;&lt;/div&gt;" style="swimlane;fontStyle=1;align=center;verticalAlign=top;childLayout=stackLayout;horizontal=1;startSize=26;horizontalStack=0;resizeParent=1;resizeParentMax=0;resizeLast=0;collapsible=1;marginBottom=0;whiteSpace=wrap;html=1;" parent="1" vertex="1">
          <mxGeometry x="530" y="380" width="160" height="86" as="geometry" />
        </mxCell>
        <mxCell id="5Xg6baDlLzO5euuNQ3bb-2" value="+ field: type" style="text;strokeColor=none;fillColor=none;align=left;verticalAlign=top;spacingLeft=4;spacingRight=4;overflow=hidden;rotatable=0;points=[[0,0.5],[1,0.5]];portConstraint=eastwest;whiteSpace=wrap;html=1;" parent="5Xg6baDlLzO5euuNQ3bb-1" vertex="1">
          <mxGeometry y="26" width="160" height="26" as="geometry" />
        </mxCell>
        <mxCell id="5Xg6baDlLzO5euuNQ3bb-3" value="" style="line;strokeWidth=1;fillColor=none;align=left;verticalAlign=middle;spacingTop=-1;spacingLeft=3;spacingRight=3;rotatable=0;labelPosition=right;points=[];portConstraint=eastwest;strokeColor=inherit;" parent="5Xg6baDlLzO5euuNQ3bb-1" vertex="1">
          <mxGeometry y="52" width="160" height="8" as="geometry" />
        </mxCell>
        <mxCell id="5Xg6baDlLzO5euuNQ3bb-4" value="+ OtherButtons()" style="text;strokeColor=none;fillColor=none;align=left;verticalAlign=top;spacingLeft=4;spacingRight=4;overflow=hidden;rotatable=0;points=[[0,0.5],[1,0.5]];portConstraint=eastwest;whiteSpace=wrap;html=1;" parent="5Xg6baDlLzO5euuNQ3bb-1" vertex="1">
          <mxGeometry y="60" width="160" height="26" as="geometry" />
        </mxCell>
        <mxCell id="gdYHp2zwNrjx5sL7U3kC-1" style="edgeStyle=orthogonalEdgeStyle;rounded=0;orthogonalLoop=1;jettySize=auto;html=1;exitX=0;exitY=0.5;exitDx=0;exitDy=0;entryX=0.5;entryY=0;entryDx=0;entryDy=0;" parent="1" source="oD-rKTJi_5rqf1T50AHh-2" target="e8gYesftpkrSxCPR6mt--1" edge="1">
          <mxGeometry relative="1" as="geometry" />
        </mxCell>
      </root>
    </mxGraphModel>
  </diagram>
  <diagram id="ruMqfLwLWbjBsVtRUtln" name="Box">
    <mxGraphModel dx="1426" dy="2046" grid="1" gridSize="10" guides="1" tooltips="1" connect="1" arrows="1" fold="1" page="1" pageScale="1" pageWidth="850" pageHeight="1100" math="0" shadow="0">
      <root>
        <mxCell id="0" />
        <mxCell id="1" parent="0" />
        <mxCell id="9XmjVHa1Z7m9GBEq10y8-1" style="edgeStyle=orthogonalEdgeStyle;rounded=0;orthogonalLoop=1;jettySize=auto;html=1;entryX=0.5;entryY=0;entryDx=0;entryDy=0;" edge="1" parent="1" source="5pAhK-dTG-fcOIHJS0Ga-1" target="4SMbRma_xB8wl3AIXHX_-1">
          <mxGeometry relative="1" as="geometry" />
        </mxCell>
        <mxCell id="5pAhK-dTG-fcOIHJS0Ga-1" value="QskLinearBox" style="swimlane;fontStyle=1;align=center;verticalAlign=top;childLayout=stackLayout;horizontal=1;startSize=26;horizontalStack=0;resizeParent=1;resizeParentMax=0;resizeLast=0;collapsible=1;marginBottom=0;whiteSpace=wrap;html=1;" vertex="1" parent="1">
          <mxGeometry x="320" y="-86" width="160" height="86" as="geometry" />
        </mxCell>
        <mxCell id="5pAhK-dTG-fcOIHJS0Ga-2" value="+ field: type" style="text;strokeColor=none;fillColor=none;align=left;verticalAlign=top;spacingLeft=4;spacingRight=4;overflow=hidden;rotatable=0;points=[[0,0.5],[1,0.5]];portConstraint=eastwest;whiteSpace=wrap;html=1;" vertex="1" parent="5pAhK-dTG-fcOIHJS0Ga-1">
          <mxGeometry y="26" width="160" height="26" as="geometry" />
        </mxCell>
        <mxCell id="5pAhK-dTG-fcOIHJS0Ga-3" value="" style="line;strokeWidth=1;fillColor=none;align=left;verticalAlign=middle;spacingTop=-1;spacingLeft=3;spacingRight=3;rotatable=0;labelPosition=right;points=[];portConstraint=eastwest;strokeColor=inherit;" vertex="1" parent="5pAhK-dTG-fcOIHJS0Ga-1">
          <mxGeometry y="52" width="160" height="8" as="geometry" />
        </mxCell>
        <mxCell id="5pAhK-dTG-fcOIHJS0Ga-4" value="+ method(type): type" style="text;strokeColor=none;fillColor=none;align=left;verticalAlign=top;spacingLeft=4;spacingRight=4;overflow=hidden;rotatable=0;points=[[0,0.5],[1,0.5]];portConstraint=eastwest;whiteSpace=wrap;html=1;" vertex="1" parent="5pAhK-dTG-fcOIHJS0Ga-1">
          <mxGeometry y="60" width="160" height="26" as="geometry" />
        </mxCell>
        <mxCell id="9XmjVHa1Z7m9GBEq10y8-3" style="edgeStyle=orthogonalEdgeStyle;rounded=0;orthogonalLoop=1;jettySize=auto;html=1;exitX=0;exitY=0.25;exitDx=0;exitDy=0;entryX=0.5;entryY=0;entryDx=0;entryDy=0;" edge="1" parent="1" source="4SMbRma_xB8wl3AIXHX_-1" target="K5NHLRTNji2eOh1BK6gx-1">
          <mxGeometry relative="1" as="geometry" />
        </mxCell>
        <mxCell id="9XmjVHa1Z7m9GBEq10y8-4" style="edgeStyle=orthogonalEdgeStyle;rounded=0;orthogonalLoop=1;jettySize=auto;html=1;exitX=1;exitY=0.25;exitDx=0;exitDy=0;entryX=0.5;entryY=0;entryDx=0;entryDy=0;" edge="1" parent="1" source="4SMbRma_xB8wl3AIXHX_-1" target="mCfQTde7dM9BQpUnZfaw-1">
          <mxGeometry relative="1" as="geometry" />
        </mxCell>
        <mxCell id="4SMbRma_xB8wl3AIXHX_-1" value="OuterVerticalBox" style="swimlane;fontStyle=1;align=center;verticalAlign=top;childLayout=stackLayout;horizontal=1;startSize=26;horizontalStack=0;resizeParent=1;resizeParentMax=0;resizeLast=0;collapsible=1;marginBottom=0;whiteSpace=wrap;html=1;" vertex="1" parent="1">
          <mxGeometry x="320" y="60" width="160" height="86" as="geometry" />
        </mxCell>
        <mxCell id="4SMbRma_xB8wl3AIXHX_-2" value="+ field: type" style="text;strokeColor=none;fillColor=none;align=left;verticalAlign=top;spacingLeft=4;spacingRight=4;overflow=hidden;rotatable=0;points=[[0,0.5],[1,0.5]];portConstraint=eastwest;whiteSpace=wrap;html=1;" vertex="1" parent="4SMbRma_xB8wl3AIXHX_-1">
          <mxGeometry y="26" width="160" height="26" as="geometry" />
        </mxCell>
        <mxCell id="4SMbRma_xB8wl3AIXHX_-3" value="" style="line;strokeWidth=1;fillColor=none;align=left;verticalAlign=middle;spacingTop=-1;spacingLeft=3;spacingRight=3;rotatable=0;labelPosition=right;points=[];portConstraint=eastwest;strokeColor=inherit;" vertex="1" parent="4SMbRma_xB8wl3AIXHX_-1">
          <mxGeometry y="52" width="160" height="8" as="geometry" />
        </mxCell>
        <mxCell id="4SMbRma_xB8wl3AIXHX_-4" value="+ method(type): type" style="text;strokeColor=none;fillColor=none;align=left;verticalAlign=top;spacingLeft=4;spacingRight=4;overflow=hidden;rotatable=0;points=[[0,0.5],[1,0.5]];portConstraint=eastwest;whiteSpace=wrap;html=1;" vertex="1" parent="4SMbRma_xB8wl3AIXHX_-1">
          <mxGeometry y="60" width="160" height="26" as="geometry" />
        </mxCell>
        <mxCell id="K5NHLRTNji2eOh1BK6gx-1" value="DisplayVerticalBox" style="swimlane;fontStyle=1;align=center;verticalAlign=top;childLayout=stackLayout;horizontal=1;startSize=26;horizontalStack=0;resizeParent=1;resizeParentMax=0;resizeLast=0;collapsible=1;marginBottom=0;whiteSpace=wrap;html=1;" vertex="1" parent="1">
          <mxGeometry x="120" y="180" width="160" height="86" as="geometry" />
        </mxCell>
        <mxCell id="K5NHLRTNji2eOh1BK6gx-2" value="+ field: type" style="text;strokeColor=none;fillColor=none;align=left;verticalAlign=top;spacingLeft=4;spacingRight=4;overflow=hidden;rotatable=0;points=[[0,0.5],[1,0.5]];portConstraint=eastwest;whiteSpace=wrap;html=1;" vertex="1" parent="K5NHLRTNji2eOh1BK6gx-1">
          <mxGeometry y="26" width="160" height="26" as="geometry" />
        </mxCell>
        <mxCell id="K5NHLRTNji2eOh1BK6gx-3" value="" style="line;strokeWidth=1;fillColor=none;align=left;verticalAlign=middle;spacingTop=-1;spacingLeft=3;spacingRight=3;rotatable=0;labelPosition=right;points=[];portConstraint=eastwest;strokeColor=inherit;" vertex="1" parent="K5NHLRTNji2eOh1BK6gx-1">
          <mxGeometry y="52" width="160" height="8" as="geometry" />
        </mxCell>
        <mxCell id="K5NHLRTNji2eOh1BK6gx-4" value="+ method(type): type" style="text;strokeColor=none;fillColor=none;align=left;verticalAlign=top;spacingLeft=4;spacingRight=4;overflow=hidden;rotatable=0;points=[[0,0.5],[1,0.5]];portConstraint=eastwest;whiteSpace=wrap;html=1;" vertex="1" parent="K5NHLRTNji2eOh1BK6gx-1">
          <mxGeometry y="60" width="160" height="26" as="geometry" />
        </mxCell>
        <mxCell id="t1SFwlLKQwDlnOk-A-Nn-1" value="&lt;div&gt;OtherButtonsHorizontalBox&lt;/div&gt;" style="swimlane;fontStyle=1;align=center;verticalAlign=top;childLayout=stackLayout;horizontal=1;startSize=26;horizontalStack=0;resizeParent=1;resizeParentMax=0;resizeLast=0;collapsible=1;marginBottom=0;whiteSpace=wrap;html=1;" vertex="1" parent="1">
          <mxGeometry x="310" y="330" width="180" height="86" as="geometry" />
        </mxCell>
        <mxCell id="t1SFwlLKQwDlnOk-A-Nn-2" value="+ field: type" style="text;strokeColor=none;fillColor=none;align=left;verticalAlign=top;spacingLeft=4;spacingRight=4;overflow=hidden;rotatable=0;points=[[0,0.5],[1,0.5]];portConstraint=eastwest;whiteSpace=wrap;html=1;" vertex="1" parent="t1SFwlLKQwDlnOk-A-Nn-1">
          <mxGeometry y="26" width="180" height="26" as="geometry" />
        </mxCell>
        <mxCell id="t1SFwlLKQwDlnOk-A-Nn-3" value="" style="line;strokeWidth=1;fillColor=none;align=left;verticalAlign=middle;spacingTop=-1;spacingLeft=3;spacingRight=3;rotatable=0;labelPosition=right;points=[];portConstraint=eastwest;strokeColor=inherit;" vertex="1" parent="t1SFwlLKQwDlnOk-A-Nn-1">
          <mxGeometry y="52" width="180" height="8" as="geometry" />
        </mxCell>
        <mxCell id="t1SFwlLKQwDlnOk-A-Nn-4" value="+ method(type): type" style="text;strokeColor=none;fillColor=none;align=left;verticalAlign=top;spacingLeft=4;spacingRight=4;overflow=hidden;rotatable=0;points=[[0,0.5],[1,0.5]];portConstraint=eastwest;whiteSpace=wrap;html=1;" vertex="1" parent="t1SFwlLKQwDlnOk-A-Nn-1">
          <mxGeometry y="60" width="180" height="26" as="geometry" />
        </mxCell>
        <mxCell id="9XmjVHa1Z7m9GBEq10y8-5" style="edgeStyle=orthogonalEdgeStyle;rounded=0;orthogonalLoop=1;jettySize=auto;html=1;exitX=0;exitY=0.25;exitDx=0;exitDy=0;entryX=0.5;entryY=0;entryDx=0;entryDy=0;" edge="1" parent="1" source="mCfQTde7dM9BQpUnZfaw-1" target="t1SFwlLKQwDlnOk-A-Nn-1">
          <mxGeometry relative="1" as="geometry" />
        </mxCell>
        <mxCell id="9XmjVHa1Z7m9GBEq10y8-7" style="edgeStyle=orthogonalEdgeStyle;rounded=0;orthogonalLoop=1;jettySize=auto;html=1;exitX=1;exitY=0.25;exitDx=0;exitDy=0;entryX=0.5;entryY=0;entryDx=0;entryDy=0;" edge="1" parent="1" source="mCfQTde7dM9BQpUnZfaw-1" target="y9JyhVkARbo9-sRpEjV1-1">
          <mxGeometry relative="1" as="geometry" />
        </mxCell>
        <mxCell id="mCfQTde7dM9BQpUnZfaw-1" value="ButtonsPanelHorizontalBox" style="swimlane;fontStyle=1;align=center;verticalAlign=top;childLayout=stackLayout;horizontal=1;startSize=26;horizontalStack=0;resizeParent=1;resizeParentMax=0;resizeLast=0;collapsible=1;marginBottom=0;whiteSpace=wrap;html=1;" vertex="1" parent="1">
          <mxGeometry x="485" y="180" width="210" height="80" as="geometry" />
        </mxCell>
        <mxCell id="mCfQTde7dM9BQpUnZfaw-2" value="+ field: type" style="text;strokeColor=none;fillColor=none;align=left;verticalAlign=top;spacingLeft=4;spacingRight=4;overflow=hidden;rotatable=0;points=[[0,0.5],[1,0.5]];portConstraint=eastwest;whiteSpace=wrap;html=1;" vertex="1" parent="mCfQTde7dM9BQpUnZfaw-1">
          <mxGeometry y="26" width="210" height="26" as="geometry" />
        </mxCell>
        <mxCell id="mCfQTde7dM9BQpUnZfaw-3" value="" style="line;strokeWidth=1;fillColor=none;align=left;verticalAlign=middle;spacingTop=-1;spacingLeft=3;spacingRight=3;rotatable=0;labelPosition=right;points=[];portConstraint=eastwest;strokeColor=inherit;" vertex="1" parent="mCfQTde7dM9BQpUnZfaw-1">
          <mxGeometry y="52" width="210" height="8" as="geometry" />
        </mxCell>
        <mxCell id="mCfQTde7dM9BQpUnZfaw-4" value="+ method(type): type" style="text;strokeColor=none;fillColor=none;align=left;verticalAlign=top;spacingLeft=4;spacingRight=4;overflow=hidden;rotatable=0;points=[[0,0.5],[1,0.5]];portConstraint=eastwest;whiteSpace=wrap;html=1;" vertex="1" parent="mCfQTde7dM9BQpUnZfaw-1">
          <mxGeometry y="60" width="210" height="20" as="geometry" />
        </mxCell>
        <mxCell id="yMkw6JY24H_v0TOEavpt-1" value="NumberGridBox" style="swimlane;fontStyle=1;align=center;verticalAlign=top;childLayout=stackLayout;horizontal=1;startSize=26;horizontalStack=0;resizeParent=1;resizeParentMax=0;resizeLast=0;collapsible=1;marginBottom=0;whiteSpace=wrap;html=1;" vertex="1" parent="1">
          <mxGeometry x="515" y="464" width="180" height="86" as="geometry" />
        </mxCell>
        <mxCell id="yMkw6JY24H_v0TOEavpt-2" value="+ field: type" style="text;strokeColor=none;fillColor=none;align=left;verticalAlign=top;spacingLeft=4;spacingRight=4;overflow=hidden;rotatable=0;points=[[0,0.5],[1,0.5]];portConstraint=eastwest;whiteSpace=wrap;html=1;" vertex="1" parent="yMkw6JY24H_v0TOEavpt-1">
          <mxGeometry y="26" width="180" height="26" as="geometry" />
        </mxCell>
        <mxCell id="yMkw6JY24H_v0TOEavpt-3" value="" style="line;strokeWidth=1;fillColor=none;align=left;verticalAlign=middle;spacingTop=-1;spacingLeft=3;spacingRight=3;rotatable=0;labelPosition=right;points=[];portConstraint=eastwest;strokeColor=inherit;" vertex="1" parent="yMkw6JY24H_v0TOEavpt-1">
          <mxGeometry y="52" width="180" height="8" as="geometry" />
        </mxCell>
        <mxCell id="yMkw6JY24H_v0TOEavpt-4" value="+ method(type): type" style="text;strokeColor=none;fillColor=none;align=left;verticalAlign=top;spacingLeft=4;spacingRight=4;overflow=hidden;rotatable=0;points=[[0,0.5],[1,0.5]];portConstraint=eastwest;whiteSpace=wrap;html=1;" vertex="1" parent="yMkw6JY24H_v0TOEavpt-1">
          <mxGeometry y="60" width="180" height="26" as="geometry" />
        </mxCell>
        <mxCell id="y9JyhVkARbo9-sRpEjV1-1" value="OperationVerticalBox" style="swimlane;fontStyle=1;align=center;verticalAlign=top;childLayout=stackLayout;horizontal=1;startSize=26;horizontalStack=0;resizeParent=1;resizeParentMax=0;resizeLast=0;collapsible=1;marginBottom=0;whiteSpace=wrap;html=1;" vertex="1" parent="1">
          <mxGeometry x="720" y="330" width="180" height="86" as="geometry" />
        </mxCell>
        <mxCell id="y9JyhVkARbo9-sRpEjV1-2" value="+ field: type" style="text;strokeColor=none;fillColor=none;align=left;verticalAlign=top;spacingLeft=4;spacingRight=4;overflow=hidden;rotatable=0;points=[[0,0.5],[1,0.5]];portConstraint=eastwest;whiteSpace=wrap;html=1;" vertex="1" parent="y9JyhVkARbo9-sRpEjV1-1">
          <mxGeometry y="26" width="180" height="26" as="geometry" />
        </mxCell>
        <mxCell id="y9JyhVkARbo9-sRpEjV1-3" value="" style="line;strokeWidth=1;fillColor=none;align=left;verticalAlign=middle;spacingTop=-1;spacingLeft=3;spacingRight=3;rotatable=0;labelPosition=right;points=[];portConstraint=eastwest;strokeColor=inherit;" vertex="1" parent="y9JyhVkARbo9-sRpEjV1-1">
          <mxGeometry y="52" width="180" height="8" as="geometry" />
        </mxCell>
        <mxCell id="y9JyhVkARbo9-sRpEjV1-4" value="+ method(type): type" style="text;strokeColor=none;fillColor=none;align=left;verticalAlign=top;spacingLeft=4;spacingRight=4;overflow=hidden;rotatable=0;points=[[0,0.5],[1,0.5]];portConstraint=eastwest;whiteSpace=wrap;html=1;" vertex="1" parent="y9JyhVkARbo9-sRpEjV1-1">
          <mxGeometry y="60" width="180" height="26" as="geometry" />
        </mxCell>
        <mxCell id="OouL0N0gMTTvL0xbprgt-1" value="" style="endArrow=diamondThin;endFill=1;endSize=24;html=1;rounded=0;" edge="1" parent="1">
          <mxGeometry width="160" relative="1" as="geometry">
            <mxPoint x="589.5" y="260" as="sourcePoint" />
            <mxPoint x="590" y="460" as="targetPoint" />
          </mxGeometry>
        </mxCell>
      </root>
    </mxGraphModel>
  </diagram>
  <diagram id="9nGcDedmU2_qu1KZdGZ5" name="Skin">
    <mxGraphModel dx="1426" dy="946" grid="1" gridSize="10" guides="1" tooltips="1" connect="1" arrows="1" fold="1" page="1" pageScale="1" pageWidth="850" pageHeight="1100" math="0" shadow="0">
      <root>
        <mxCell id="0" />
        <mxCell id="1" parent="0" />
        <mxCell id="PZmXEP5bQ9epHDkG1m3D-10" value="GeneralButtonSkin" style="swimlane;fontStyle=1;align=center;verticalAlign=top;childLayout=stackLayout;horizontal=1;startSize=26;horizontalStack=0;resizeParent=1;resizeParentMax=0;resizeLast=0;collapsible=1;marginBottom=0;whiteSpace=wrap;html=1;" vertex="1" parent="1">
          <mxGeometry x="390" y="150" width="160" height="86" as="geometry" />
        </mxCell>
        <mxCell id="PZmXEP5bQ9epHDkG1m3D-11" value="+ field: type" style="text;strokeColor=none;fillColor=none;align=left;verticalAlign=top;spacingLeft=4;spacingRight=4;overflow=hidden;rotatable=0;points=[[0,0.5],[1,0.5]];portConstraint=eastwest;whiteSpace=wrap;html=1;" vertex="1" parent="PZmXEP5bQ9epHDkG1m3D-10">
          <mxGeometry y="26" width="160" height="26" as="geometry" />
        </mxCell>
        <mxCell id="PZmXEP5bQ9epHDkG1m3D-12" value="" style="line;strokeWidth=1;fillColor=none;align=left;verticalAlign=middle;spacingTop=-1;spacingLeft=3;spacingRight=3;rotatable=0;labelPosition=right;points=[];portConstraint=eastwest;strokeColor=inherit;" vertex="1" parent="PZmXEP5bQ9epHDkG1m3D-10">
          <mxGeometry y="52" width="160" height="8" as="geometry" />
        </mxCell>
        <mxCell id="PZmXEP5bQ9epHDkG1m3D-13" value="+ method(type): type" style="text;strokeColor=none;fillColor=none;align=left;verticalAlign=top;spacingLeft=4;spacingRight=4;overflow=hidden;rotatable=0;points=[[0,0.5],[1,0.5]];portConstraint=eastwest;whiteSpace=wrap;html=1;" vertex="1" parent="PZmXEP5bQ9epHDkG1m3D-10">
          <mxGeometry y="60" width="160" height="26" as="geometry" />
        </mxCell>
        <mxCell id="PZmXEP5bQ9epHDkG1m3D-14" value="&lt;div&gt;ButtonNumberSkin&lt;/div&gt;" style="swimlane;fontStyle=1;align=center;verticalAlign=top;childLayout=stackLayout;horizontal=1;startSize=26;horizontalStack=0;resizeParent=1;resizeParentMax=0;resizeLast=0;collapsible=1;marginBottom=0;whiteSpace=wrap;html=1;" vertex="1" parent="1">
          <mxGeometry x="390" y="280" width="160" height="86" as="geometry" />
        </mxCell>
        <mxCell id="PZmXEP5bQ9epHDkG1m3D-15" value="+ field: type" style="text;strokeColor=none;fillColor=none;align=left;verticalAlign=top;spacingLeft=4;spacingRight=4;overflow=hidden;rotatable=0;points=[[0,0.5],[1,0.5]];portConstraint=eastwest;whiteSpace=wrap;html=1;" vertex="1" parent="PZmXEP5bQ9epHDkG1m3D-14">
          <mxGeometry y="26" width="160" height="26" as="geometry" />
        </mxCell>
        <mxCell id="PZmXEP5bQ9epHDkG1m3D-16" value="" style="line;strokeWidth=1;fillColor=none;align=left;verticalAlign=middle;spacingTop=-1;spacingLeft=3;spacingRight=3;rotatable=0;labelPosition=right;points=[];portConstraint=eastwest;strokeColor=inherit;" vertex="1" parent="PZmXEP5bQ9epHDkG1m3D-14">
          <mxGeometry y="52" width="160" height="8" as="geometry" />
        </mxCell>
        <mxCell id="PZmXEP5bQ9epHDkG1m3D-17" value="+ method(type): type" style="text;strokeColor=none;fillColor=none;align=left;verticalAlign=top;spacingLeft=4;spacingRight=4;overflow=hidden;rotatable=0;points=[[0,0.5],[1,0.5]];portConstraint=eastwest;whiteSpace=wrap;html=1;" vertex="1" parent="PZmXEP5bQ9epHDkG1m3D-14">
          <mxGeometry y="60" width="160" height="26" as="geometry" />
        </mxCell>
        <mxCell id="PZmXEP5bQ9epHDkG1m3D-18" value="&lt;div&gt;OperatorButtonSkin&lt;/div&gt;" style="swimlane;fontStyle=1;align=center;verticalAlign=top;childLayout=stackLayout;horizontal=1;startSize=26;horizontalStack=0;resizeParent=1;resizeParentMax=0;resizeLast=0;collapsible=1;marginBottom=0;whiteSpace=wrap;html=1;" vertex="1" parent="1">
          <mxGeometry x="390" y="410" width="160" height="86" as="geometry" />
        </mxCell>
        <mxCell id="PZmXEP5bQ9epHDkG1m3D-19" value="+ field: type" style="text;strokeColor=none;fillColor=none;align=left;verticalAlign=top;spacingLeft=4;spacingRight=4;overflow=hidden;rotatable=0;points=[[0,0.5],[1,0.5]];portConstraint=eastwest;whiteSpace=wrap;html=1;" vertex="1" parent="PZmXEP5bQ9epHDkG1m3D-18">
          <mxGeometry y="26" width="160" height="26" as="geometry" />
        </mxCell>
        <mxCell id="PZmXEP5bQ9epHDkG1m3D-20" value="" style="line;strokeWidth=1;fillColor=none;align=left;verticalAlign=middle;spacingTop=-1;spacingLeft=3;spacingRight=3;rotatable=0;labelPosition=right;points=[];portConstraint=eastwest;strokeColor=inherit;" vertex="1" parent="PZmXEP5bQ9epHDkG1m3D-18">
          <mxGeometry y="52" width="160" height="8" as="geometry" />
        </mxCell>
        <mxCell id="PZmXEP5bQ9epHDkG1m3D-21" value="+ method(type): type" style="text;strokeColor=none;fillColor=none;align=left;verticalAlign=top;spacingLeft=4;spacingRight=4;overflow=hidden;rotatable=0;points=[[0,0.5],[1,0.5]];portConstraint=eastwest;whiteSpace=wrap;html=1;" vertex="1" parent="PZmXEP5bQ9epHDkG1m3D-18">
          <mxGeometry y="60" width="160" height="26" as="geometry" />
        </mxCell>
        <mxCell id="ujuVVTdOhTiuuQYES_Rt-1" value="OtherButtonSkin" style="swimlane;fontStyle=1;align=center;verticalAlign=top;childLayout=stackLayout;horizontal=1;startSize=26;horizontalStack=0;resizeParent=1;resizeParentMax=0;resizeLast=0;collapsible=1;marginBottom=0;whiteSpace=wrap;html=1;" vertex="1" parent="1">
          <mxGeometry x="390" y="540" width="160" height="86" as="geometry" />
        </mxCell>
        <mxCell id="ujuVVTdOhTiuuQYES_Rt-2" value="+ field: type" style="text;strokeColor=none;fillColor=none;align=left;verticalAlign=top;spacingLeft=4;spacingRight=4;overflow=hidden;rotatable=0;points=[[0,0.5],[1,0.5]];portConstraint=eastwest;whiteSpace=wrap;html=1;" vertex="1" parent="ujuVVTdOhTiuuQYES_Rt-1">
          <mxGeometry y="26" width="160" height="26" as="geometry" />
        </mxCell>
        <mxCell id="ujuVVTdOhTiuuQYES_Rt-3" value="" style="line;strokeWidth=1;fillColor=none;align=left;verticalAlign=middle;spacingTop=-1;spacingLeft=3;spacingRight=3;rotatable=0;labelPosition=right;points=[];portConstraint=eastwest;strokeColor=inherit;" vertex="1" parent="ujuVVTdOhTiuuQYES_Rt-1">
          <mxGeometry y="52" width="160" height="8" as="geometry" />
        </mxCell>
        <mxCell id="ujuVVTdOhTiuuQYES_Rt-4" value="+ method(type): type" style="text;strokeColor=none;fillColor=none;align=left;verticalAlign=top;spacingLeft=4;spacingRight=4;overflow=hidden;rotatable=0;points=[[0,0.5],[1,0.5]];portConstraint=eastwest;whiteSpace=wrap;html=1;" vertex="1" parent="ujuVVTdOhTiuuQYES_Rt-1">
          <mxGeometry y="60" width="160" height="26" as="geometry" />
        </mxCell>
        <mxCell id="ujuVVTdOhTiuuQYES_Rt-5" value="CalculatorButtonSkinFactory" style="shape=umlFrame;whiteSpace=wrap;html=1;pointerEvents=0;width=210;height=50;" vertex="1" parent="1">
          <mxGeometry x="310" y="80" width="320" height="610" as="geometry" />
        </mxCell>
      </root>
    </mxGraphModel>
  </diagram>
  <diagram id="6KaBTSwrBIUXGLcSBhpJ" name="Page-5">
    <mxGraphModel dx="3058" dy="1975" grid="1" gridSize="10" guides="1" tooltips="1" connect="1" arrows="1" fold="1" page="1" pageScale="1" pageWidth="850" pageHeight="1100" math="0" shadow="0">
      <root>
        <mxCell id="0" />
        <mxCell id="1" parent="0" />
        <mxCell id="ZCd8fZj5tshZCNKueEOi-1" value="MyToggleButton" style="swimlane;fontStyle=1;align=center;verticalAlign=top;childLayout=stackLayout;horizontal=1;startSize=26;horizontalStack=0;resizeParent=1;resizeParentMax=0;resizeLast=0;collapsible=1;marginBottom=0;whiteSpace=wrap;html=1;" vertex="1" parent="1">
          <mxGeometry x="-540" y="90" width="300" height="340" as="geometry">
            <mxRectangle x="150" y="80" width="130" height="30" as="alternateBounds" />
          </mxGeometry>
        </mxCell>
        <mxCell id="ZCd8fZj5tshZCNKueEOi-2" value="&lt;div&gt;- PrivateData: Class&lt;/div&gt;&lt;div&gt;- m_data: Unique ptr to PrivateData&lt;br&gt;&lt;/div&gt;" style="text;strokeColor=none;fillColor=none;align=left;verticalAlign=top;spacingLeft=4;spacingRight=4;overflow=hidden;rotatable=0;points=[[0,0.5],[1,0.5]];portConstraint=eastwest;whiteSpace=wrap;html=1;" vertex="1" parent="ZCd8fZj5tshZCNKueEOi-1">
          <mxGeometry y="26" width="300" height="52" as="geometry" />
        </mxCell>
        <mxCell id="ZCd8fZj5tshZCNKueEOi-3" value="" style="line;strokeWidth=1;fillColor=none;align=left;verticalAlign=middle;spacingTop=-1;spacingLeft=3;spacingRight=3;rotatable=0;labelPosition=right;points=[];portConstraint=eastwest;strokeColor=inherit;" vertex="1" parent="ZCd8fZj5tshZCNKueEOi-1">
          <mxGeometry y="78" width="300" height="10" as="geometry" />
        </mxCell>
        <mxCell id="ZCd8fZj5tshZCNKueEOi-4" value="&lt;div&gt;+ MyToggleButton()&lt;/div&gt;&lt;div&gt;+ ~MyToggleButton()&lt;/div&gt;&lt;div&gt;+ isCheckable(): bool&lt;/div&gt;&lt;div&gt;+ setText(bool, QString): void&lt;/div&gt;&lt;div&gt;+ text(bool):Qstring&lt;/div&gt;&lt;div&gt;+ setIcon(bool, Qstring): void&lt;/div&gt;&lt;div&gt;+ setTextOptions(QskTextOptions):void&lt;/div&gt;&lt;div&gt;+ textOptions(): QskTextOptions&lt;/div&gt;&lt;div&gt;+ graphic(bool): QskGraphic&lt;/div&gt;&lt;div&gt;+ setInverted(bool): void&lt;/div&gt;&lt;div&gt;+ isInverted(): bool&lt;/div&gt;&lt;div&gt;&lt;br&gt;&lt;/div&gt;&lt;div&gt;+ Q_SIGNALS:&lt;/div&gt;&lt;div&gt;&lt;span style=&quot;white-space: pre;&quot;&gt;&#x9;+ invertedChanged(bool): void&lt;/span&gt;&lt;/div&gt;&lt;div&gt;&lt;span style=&quot;white-space: pre;&quot;&gt;# updateResources(): void&lt;/span&gt;&lt;/div&gt;&lt;div&gt;&lt;span style=&quot;white-space: pre;&quot;&gt;&lt;br&gt;&lt;/span&gt;&lt;/div&gt;&lt;div&gt;&lt;br&gt;&lt;/div&gt;" style="text;strokeColor=none;fillColor=none;align=left;verticalAlign=top;spacingLeft=4;spacingRight=4;overflow=hidden;rotatable=0;points=[[0,0.5],[1,0.5]];portConstraint=eastwest;whiteSpace=wrap;html=1;" vertex="1" parent="ZCd8fZj5tshZCNKueEOi-1">
          <mxGeometry y="88" width="300" height="252" as="geometry" />
        </mxCell>
        <mxCell id="ZCd8fZj5tshZCNKueEOi-7" value="mycontrols" style="shape=umlFrame;whiteSpace=wrap;html=1;pointerEvents=0;width=140;height=30;" vertex="1" parent="1">
          <mxGeometry x="-960" y="-170" width="1740" height="1480" as="geometry" />
        </mxCell>
        <mxCell id="ZCd8fZj5tshZCNKueEOi-8" value="MyToggleButtonSkinlet" style="swimlane;fontStyle=1;align=center;verticalAlign=top;childLayout=stackLayout;horizontal=1;startSize=26;horizontalStack=0;resizeParent=1;resizeParentMax=0;resizeLast=0;collapsible=1;marginBottom=0;whiteSpace=wrap;html=1;" vertex="1" parent="1">
          <mxGeometry x="-190" y="90" width="240" height="318" as="geometry">
            <mxRectangle x="500" y="80" width="160" height="30" as="alternateBounds" />
          </mxGeometry>
        </mxCell>
        <mxCell id="ZCd8fZj5tshZCNKueEOi-9" value="+ NodeRole: enum" style="text;strokeColor=none;fillColor=none;align=left;verticalAlign=top;spacingLeft=4;spacingRight=4;overflow=hidden;rotatable=0;points=[[0,0.5],[1,0.5]];portConstraint=eastwest;whiteSpace=wrap;html=1;" vertex="1" parent="ZCd8fZj5tshZCNKueEOi-8">
          <mxGeometry y="26" width="240" height="74" as="geometry" />
        </mxCell>
        <mxCell id="ZCd8fZj5tshZCNKueEOi-10" value="" style="line;strokeWidth=1;fillColor=none;align=left;verticalAlign=middle;spacingTop=-1;spacingLeft=3;spacingRight=3;rotatable=0;labelPosition=right;points=[];portConstraint=eastwest;strokeColor=inherit;" vertex="1" parent="ZCd8fZj5tshZCNKueEOi-8">
          <mxGeometry y="100" width="240" height="8" as="geometry" />
        </mxCell>
        <mxCell id="ZCd8fZj5tshZCNKueEOi-11" value="&lt;div&gt;+ MyToggelButtonSkinlet()&lt;/div&gt;&lt;div&gt;+&amp;nbsp; ~MyToggleButtonSkinlet()&lt;/div&gt;&lt;div&gt;+ subControlRect( QskSkinnable, QRectF, QskAspect::Subcontrol): QRectF&lt;/div&gt;&lt;div&gt;+ sizeHint(QskSkinnable, Qt::SizeHint, QSizeF):QSizeF&lt;/div&gt;&lt;div&gt;# updateSubNode(QskSkinnable, quint8, QSGNode): QSGNode&lt;/div&gt;" style="text;strokeColor=none;fillColor=none;align=left;verticalAlign=top;spacingLeft=4;spacingRight=4;overflow=hidden;rotatable=0;points=[[0,0.5],[1,0.5]];portConstraint=eastwest;whiteSpace=wrap;html=1;" vertex="1" parent="ZCd8fZj5tshZCNKueEOi-8">
          <mxGeometry y="108" width="240" height="210" as="geometry" />
        </mxCell>
        <mxCell id="ZCd8fZj5tshZCNKueEOi-12" value="MySkinFactory" style="swimlane;fontStyle=1;align=center;verticalAlign=top;childLayout=stackLayout;horizontal=1;startSize=26;horizontalStack=0;resizeParent=1;resizeParentMax=0;resizeLast=0;collapsible=1;marginBottom=0;whiteSpace=wrap;html=1;" vertex="1" parent="1">
          <mxGeometry x="220" y="520" width="160" height="120" as="geometry">
            <mxRectangle x="330" y="250" width="120" height="30" as="alternateBounds" />
          </mxGeometry>
        </mxCell>
        <mxCell id="ZCd8fZj5tshZCNKueEOi-14" value="" style="line;strokeWidth=1;fillColor=none;align=left;verticalAlign=middle;spacingTop=-1;spacingLeft=3;spacingRight=3;rotatable=0;labelPosition=right;points=[];portConstraint=eastwest;strokeColor=inherit;" vertex="1" parent="ZCd8fZj5tshZCNKueEOi-12">
          <mxGeometry y="26" width="160" height="8" as="geometry" />
        </mxCell>
        <mxCell id="ZCd8fZj5tshZCNKueEOi-15" value="&lt;div&gt;+ skinName(): QStringList&lt;/div&gt;&lt;div&gt;+ createSkin(QString): QskSkin&lt;br&gt;&lt;/div&gt;" style="text;strokeColor=none;fillColor=none;align=left;verticalAlign=top;spacingLeft=4;spacingRight=4;overflow=hidden;rotatable=0;points=[[0,0.5],[1,0.5]];portConstraint=eastwest;whiteSpace=wrap;html=1;" vertex="1" parent="ZCd8fZj5tshZCNKueEOi-12">
          <mxGeometry y="34" width="160" height="86" as="geometry" />
        </mxCell>
        <mxCell id="ZCd8fZj5tshZCNKueEOi-20" value="MySkin.h" style="shape=umlFrame;whiteSpace=wrap;html=1;pointerEvents=0;width=120;height=33;" vertex="1" parent="1">
          <mxGeometry x="180" y="470" width="260" height="183" as="geometry" />
        </mxCell>
        <mxCell id="ZCd8fZj5tshZCNKueEOi-47" style="edgeStyle=orthogonalEdgeStyle;rounded=0;orthogonalLoop=1;jettySize=auto;html=1;" edge="1" parent="1" source="ZCd8fZj5tshZCNKueEOi-23" target="ZCd8fZj5tshZCNKueEOi-43">
          <mxGeometry relative="1" as="geometry" />
        </mxCell>
        <mxCell id="ZCd8fZj5tshZCNKueEOi-48" style="edgeStyle=orthogonalEdgeStyle;rounded=0;orthogonalLoop=1;jettySize=auto;html=1;entryX=0.5;entryY=0;entryDx=0;entryDy=0;" edge="1" parent="1" source="ZCd8fZj5tshZCNKueEOi-23" target="ZCd8fZj5tshZCNKueEOi-38">
          <mxGeometry relative="1" as="geometry" />
        </mxCell>
        <mxCell id="ZCd8fZj5tshZCNKueEOi-23" value="MySkin" style="swimlane;fontStyle=1;align=center;verticalAlign=top;childLayout=stackLayout;horizontal=1;startSize=26;horizontalStack=0;resizeParent=1;resizeParentMax=0;resizeLast=0;collapsible=1;marginBottom=0;whiteSpace=wrap;html=1;" vertex="1" parent="1">
          <mxGeometry x="100" y="737" width="160" height="160" as="geometry">
            <mxRectangle x="310" y="737" width="80" height="30" as="alternateBounds" />
          </mxGeometry>
        </mxCell>
        <mxCell id="ZCd8fZj5tshZCNKueEOi-24" value="+ GraphicRole: enum" style="text;strokeColor=none;fillColor=none;align=left;verticalAlign=top;spacingLeft=4;spacingRight=4;overflow=hidden;rotatable=0;points=[[0,0.5],[1,0.5]];portConstraint=eastwest;whiteSpace=wrap;html=1;" vertex="1" parent="ZCd8fZj5tshZCNKueEOi-23">
          <mxGeometry y="26" width="160" height="26" as="geometry" />
        </mxCell>
        <mxCell id="ZCd8fZj5tshZCNKueEOi-25" value="" style="line;strokeWidth=1;fillColor=none;align=left;verticalAlign=middle;spacingTop=-1;spacingLeft=3;spacingRight=3;rotatable=0;labelPosition=right;points=[];portConstraint=eastwest;strokeColor=inherit;" vertex="1" parent="ZCd8fZj5tshZCNKueEOi-23">
          <mxGeometry y="52" width="160" height="8" as="geometry" />
        </mxCell>
        <mxCell id="ZCd8fZj5tshZCNKueEOi-26" value="&lt;div&gt;+MySkin()&lt;/div&gt;&lt;div&gt;#&amp;nbsp; setGraphicFilter(int, QRgb): void&lt;/div&gt;" style="text;strokeColor=none;fillColor=none;align=left;verticalAlign=top;spacingLeft=4;spacingRight=4;overflow=hidden;rotatable=0;points=[[0,0.5],[1,0.5]];portConstraint=eastwest;whiteSpace=wrap;html=1;" vertex="1" parent="ZCd8fZj5tshZCNKueEOi-23">
          <mxGeometry y="60" width="160" height="100" as="geometry" />
        </mxCell>
        <mxCell id="ZCd8fZj5tshZCNKueEOi-27" value="MySkin.cpp" style="shape=umlFrame;whiteSpace=wrap;html=1;pointerEvents=0;width=130;height=30;" vertex="1" parent="1">
          <mxGeometry x="-50" y="680" width="640" height="530" as="geometry" />
        </mxCell>
        <mxCell id="ZCd8fZj5tshZCNKueEOi-29" value="MySkinEditor" style="swimlane;fontStyle=1;align=center;verticalAlign=top;childLayout=stackLayout;horizontal=1;startSize=26;horizontalStack=0;resizeParent=1;resizeParentMax=0;resizeLast=0;collapsible=1;marginBottom=0;whiteSpace=wrap;html=1;" vertex="1" parent="1">
          <mxGeometry x="330" y="737" width="210" height="210" as="geometry">
            <mxRectangle x="720" y="737" width="110" height="30" as="alternateBounds" />
          </mxGeometry>
        </mxCell>
        <mxCell id="ZCd8fZj5tshZCNKueEOi-31" value="" style="line;strokeWidth=1;fillColor=none;align=left;verticalAlign=middle;spacingTop=-1;spacingLeft=3;spacingRight=3;rotatable=0;labelPosition=right;points=[];portConstraint=eastwest;strokeColor=inherit;" vertex="1" parent="ZCd8fZj5tshZCNKueEOi-29">
          <mxGeometry y="26" width="210" height="8" as="geometry" />
        </mxCell>
        <mxCell id="ZCd8fZj5tshZCNKueEOi-30" value="- m_animationHint: QskAnimationHint" style="text;strokeColor=none;fillColor=none;align=left;verticalAlign=top;spacingLeft=4;spacingRight=4;overflow=hidden;rotatable=0;points=[[0,0.5],[1,0.5]];portConstraint=eastwest;whiteSpace=wrap;html=1;" vertex="1" parent="ZCd8fZj5tshZCNKueEOi-29">
          <mxGeometry y="34" width="210" height="26" as="geometry" />
        </mxCell>
        <mxCell id="ZCd8fZj5tshZCNKueEOi-32" value="&lt;div&gt;+ setupFocusIndicator(qreal, qreal, qreal, qreal): void&lt;/div&gt;&lt;div&gt;+ setupBox(qreal, qreal, QskBoxBorderColors, QskGradient): void&lt;/div&gt;&lt;div&gt;+ setupToggleButton(): void&lt;/div&gt;&lt;div&gt;+ setAnimator(): void&lt;/div&gt;&lt;div&gt;+ animator(): QskAnimationHint&lt;/div&gt;&lt;div&gt;&lt;br&gt;&lt;/div&gt;&lt;div&gt;&lt;br&gt;&lt;/div&gt;" style="text;strokeColor=none;fillColor=none;align=left;verticalAlign=top;spacingLeft=4;spacingRight=4;overflow=hidden;rotatable=0;points=[[0,0.5],[1,0.5]];portConstraint=eastwest;whiteSpace=wrap;html=1;" vertex="1" parent="ZCd8fZj5tshZCNKueEOi-29">
          <mxGeometry y="60" width="210" height="150" as="geometry" />
        </mxCell>
        <mxCell id="ZCd8fZj5tshZCNKueEOi-38" value="SkinBlue" style="swimlane;fontStyle=1;align=center;verticalAlign=top;childLayout=stackLayout;horizontal=1;startSize=26;horizontalStack=0;resizeParent=1;resizeParentMax=0;resizeLast=0;collapsible=1;marginBottom=0;whiteSpace=wrap;html=1;" vertex="1" parent="1">
          <mxGeometry y="1050" width="160" height="86" as="geometry" />
        </mxCell>
        <mxCell id="ZCd8fZj5tshZCNKueEOi-39" value="+ field: type" style="text;strokeColor=none;fillColor=none;align=left;verticalAlign=top;spacingLeft=4;spacingRight=4;overflow=hidden;rotatable=0;points=[[0,0.5],[1,0.5]];portConstraint=eastwest;whiteSpace=wrap;html=1;" vertex="1" parent="ZCd8fZj5tshZCNKueEOi-38">
          <mxGeometry y="26" width="160" height="26" as="geometry" />
        </mxCell>
        <mxCell id="ZCd8fZj5tshZCNKueEOi-40" value="" style="line;strokeWidth=1;fillColor=none;align=left;verticalAlign=middle;spacingTop=-1;spacingLeft=3;spacingRight=3;rotatable=0;labelPosition=right;points=[];portConstraint=eastwest;strokeColor=inherit;" vertex="1" parent="ZCd8fZj5tshZCNKueEOi-38">
          <mxGeometry y="52" width="160" height="8" as="geometry" />
        </mxCell>
        <mxCell id="ZCd8fZj5tshZCNKueEOi-41" value="# initHints(): void" style="text;strokeColor=none;fillColor=none;align=left;verticalAlign=top;spacingLeft=4;spacingRight=4;overflow=hidden;rotatable=0;points=[[0,0.5],[1,0.5]];portConstraint=eastwest;whiteSpace=wrap;html=1;" vertex="1" parent="ZCd8fZj5tshZCNKueEOi-38">
          <mxGeometry y="60" width="160" height="26" as="geometry" />
        </mxCell>
        <mxCell id="ZCd8fZj5tshZCNKueEOi-43" value="SkinPink" style="swimlane;fontStyle=1;align=center;verticalAlign=top;childLayout=stackLayout;horizontal=1;startSize=26;horizontalStack=0;resizeParent=1;resizeParentMax=0;resizeLast=0;collapsible=1;marginBottom=0;whiteSpace=wrap;html=1;" vertex="1" parent="1">
          <mxGeometry x="200" y="1050" width="160" height="86" as="geometry" />
        </mxCell>
        <mxCell id="ZCd8fZj5tshZCNKueEOi-44" value="+ field: type" style="text;strokeColor=none;fillColor=none;align=left;verticalAlign=top;spacingLeft=4;spacingRight=4;overflow=hidden;rotatable=0;points=[[0,0.5],[1,0.5]];portConstraint=eastwest;whiteSpace=wrap;html=1;" vertex="1" parent="ZCd8fZj5tshZCNKueEOi-43">
          <mxGeometry y="26" width="160" height="26" as="geometry" />
        </mxCell>
        <mxCell id="ZCd8fZj5tshZCNKueEOi-45" value="" style="line;strokeWidth=1;fillColor=none;align=left;verticalAlign=middle;spacingTop=-1;spacingLeft=3;spacingRight=3;rotatable=0;labelPosition=right;points=[];portConstraint=eastwest;strokeColor=inherit;" vertex="1" parent="ZCd8fZj5tshZCNKueEOi-43">
          <mxGeometry y="52" width="160" height="8" as="geometry" />
        </mxCell>
        <mxCell id="ZCd8fZj5tshZCNKueEOi-46" value="# initHints(): void" style="text;strokeColor=none;fillColor=none;align=left;verticalAlign=top;spacingLeft=4;spacingRight=4;overflow=hidden;rotatable=0;points=[[0,0.5],[1,0.5]];portConstraint=eastwest;whiteSpace=wrap;html=1;" vertex="1" parent="ZCd8fZj5tshZCNKueEOi-43">
          <mxGeometry y="60" width="160" height="26" as="geometry" />
        </mxCell>
      </root>
    </mxGraphModel>
  </diagram>
</mxfile>
